<svg width="47" height="57" viewBox="0 0 47 57" fill="none" xmlns="http://www.w3.org/2000/svg">
<path d="M43.6342 26.3822C44.5281 27.5156 45.012 28.9182 45.0071 30.3616V36.7851C45.0031 36.8778 45.018 36.9704 45.0508 37.0573C45.0836 37.1441 45.1336 37.2234 45.1979 37.2904C45.2621 37.3575 45.3392 37.4108 45.4246 37.4472C45.51 37.4837 45.6019 37.5024 45.6947 37.5024C45.7876 37.5024 45.8794 37.4837 45.9648 37.4472C46.0502 37.4108 46.1273 37.3575 46.1916 37.2904C46.2558 37.2234 46.3058 37.1441 46.3386 37.0573C46.3714 36.9704 46.3863 36.8778 46.3824 36.7851V30.3616C46.3885 28.6104 45.8013 26.9087 44.7165 25.5339C44.6608 25.4628 44.5916 25.4034 44.513 25.3591C44.4343 25.3148 44.3477 25.2864 44.2581 25.2755C44.1684 25.2646 44.0775 25.2715 43.9906 25.2958C43.9036 25.3201 43.8223 25.3612 43.7512 25.4169C43.6801 25.4726 43.6207 25.5418 43.5764 25.6204C43.5321 25.6991 43.5036 25.7857 43.4928 25.8754C43.4819 25.965 43.4888 26.0559 43.5131 26.1429C43.5374 26.2298 43.5785 26.3112 43.6342 26.3822Z" fill="white"/>
<path d="M1.49267 37.186C1.58299 37.1862 1.67247 37.1686 1.75596 37.1341C1.83946 37.0997 1.91534 37.0491 1.97927 36.9853C2.0432 36.9214 2.09392 36.8456 2.12852 36.7622C2.16313 36.6788 2.18094 36.5893 2.18094 36.499V30.3612C2.17964 28.7817 2.75893 27.2568 3.80865 26.0765C3.87309 26.0097 3.92337 25.9306 3.95647 25.844C3.98957 25.7573 4.00481 25.6648 4.00126 25.5721C3.99772 25.4794 3.97546 25.3884 3.93584 25.3045C3.89621 25.2206 3.84003 25.1456 3.77068 25.0839C3.70133 25.0223 3.62023 24.9753 3.53226 24.9458C3.44429 24.9164 3.35127 24.905 3.25878 24.9123C3.1663 24.9197 3.07626 24.9457 2.99408 24.9888C2.91189 25.0318 2.83927 25.0911 2.78056 25.1629C1.50874 26.5955 0.807649 28.4455 0.810556 30.3612V36.499C0.810551 36.6804 0.882258 36.8544 1.01004 36.9831C1.13782 37.1118 1.31131 37.1847 1.49267 37.186Z" fill="white"/>
<path d="M4.64455 23.4061C5.0037 23.9797 5.49142 24.462 6.06911 24.8146C6.14623 24.8616 6.23185 24.8929 6.32109 24.9068C6.41032 24.9207 6.50141 24.9168 6.58916 24.8955C6.67691 24.8742 6.7596 24.8358 6.83251 24.7825C6.90542 24.7292 6.96712 24.6621 7.01409 24.585C7.06106 24.5079 7.09238 24.4222 7.10626 24.333C7.12014 24.2438 7.11631 24.1527 7.09499 24.0649C7.07367 23.9772 7.03527 23.8945 6.98199 23.8216C6.92871 23.7487 6.86159 23.687 6.78446 23.64C6.39017 23.3985 6.05722 23.069 5.81178 22.6772C5.28463 21.8421 4.91296 20.9186 4.71473 19.9512C4.63415 19.5536 4.64609 19.1429 4.74964 18.7507C4.85319 18.3585 5.04556 17.9953 5.31189 17.6894C5.70097 17.2432 6.11491 16.8194 6.55176 16.4199C6.55176 16.5997 6.54191 16.7795 6.54191 16.9592C6.53737 20.2978 7.52286 23.5628 9.37378 26.3414C9.47496 26.4931 9.63223 26.5985 9.81105 26.6344C9.98988 26.6703 10.1756 26.6337 10.3275 26.5327C10.4794 26.4317 10.585 26.2746 10.6211 26.0958C10.6572 25.917 10.6209 25.7312 10.5201 25.5792C8.95941 23.2284 8.06637 20.498 7.9363 17.6794C7.80622 14.8607 8.44399 12.0596 9.78152 9.57511C11.119 7.0906 13.1061 5.01592 15.5307 3.57253C17.9552 2.12915 20.7262 1.37123 23.5478 1.37967C26.3695 1.38812 29.1359 2.16262 31.5517 3.6205C33.9676 5.07838 35.9422 7.16491 37.2649 9.65738C38.5875 12.1499 39.2085 14.9547 39.0615 17.7725C38.9146 20.5904 38.0052 23.3154 36.4305 25.6568C36.38 25.7317 36.3447 25.8159 36.3267 25.9045C36.3087 25.993 36.3083 26.0843 36.3256 26.173C36.3428 26.2617 36.3774 26.3462 36.4273 26.4215C36.4772 26.4969 36.5415 26.5617 36.6164 26.6122C36.7678 26.7143 36.9535 26.752 37.1326 26.7171C37.2214 26.6999 37.3058 26.6653 37.3812 26.6154C37.4565 26.5655 37.5213 26.5013 37.5719 26.4263C39.4582 23.6299 40.4635 20.3324 40.4579 16.9592C40.4579 16.7795 40.4579 16.5997 40.4481 16.4199C40.8841 16.8195 41.2972 17.2433 41.6855 17.6894C41.9522 17.9956 42.1447 18.3591 42.2483 18.7518C42.3519 19.1445 42.3636 19.5557 42.2826 19.9536C42.0844 20.921 41.7127 21.8446 41.1856 22.6796C41.0218 22.9429 40.8174 23.1785 40.5798 23.3777C40.4443 23.4965 40.3609 23.6637 40.3473 23.8433C40.3337 24.023 40.3911 24.2008 40.5071 24.3386C40.6232 24.4764 40.7886 24.5632 40.9679 24.5804C41.1473 24.5975 41.3262 24.5437 41.4663 24.4305C41.8131 24.1379 42.1122 23.7931 42.3528 23.4085C42.9674 22.4333 43.4008 21.355 43.6321 20.2257C43.7548 19.6224 43.7372 18.9989 43.5804 18.4034C43.4237 17.808 43.1322 17.2566 42.7283 16.7918C41.9739 15.9427 41.1503 15.1577 40.2658 14.445C39.0506 6.2806 31.9943 0 23.4987 0C15.0031 0 7.94676 6.27937 6.72906 14.4426C5.84433 15.1549 5.02064 15.9399 4.26656 16.7893C3.8627 17.2541 3.57115 17.8055 3.41444 18.401C3.25774 18.9964 3.24007 19.6199 3.36282 20.2233C3.59487 21.3527 4.02909 22.431 4.64455 23.4061Z" fill="white"/>
<path d="M22.6233 8.01659C22.716 8.02051 22.8086 8.00563 22.8954 7.97285C22.9823 7.94006 23.0616 7.89004 23.1286 7.8258C23.1957 7.76156 23.249 7.68442 23.2854 7.59903C23.3218 7.51365 23.3406 7.42177 23.3406 7.32894C23.3406 7.2361 23.3218 7.14423 23.2854 7.05884C23.249 6.97345 23.1957 6.89631 23.1286 6.83207C23.0616 6.76783 22.9823 6.71781 22.8954 6.68502C22.8086 6.65224 22.716 6.63736 22.6233 6.64128H20.6336C19.9235 6.64354 19.2159 6.72615 18.5244 6.88753L18.4579 6.90354C16.6145 7.34574 14.9468 8.33253 13.6718 9.73552C12.3968 11.1385 11.5736 12.8927 11.3093 14.77C11.1675 15.7806 11.0923 16.7994 11.084 17.8198C11.084 17.8814 11.084 17.9429 11.0901 18.0033V18.0242C11.2421 19.9335 12.1063 21.716 13.5113 23.0178C14.9162 24.3197 16.7593 25.0458 18.6746 25.0522H28.3276C30.243 25.0458 32.086 24.3197 33.491 23.0178C34.8959 21.716 35.7601 19.9335 35.9121 18.0242V18.0033C35.9121 17.9417 35.9183 17.8801 35.9183 17.8198C35.9084 16.7993 35.8315 15.7805 35.688 14.77C35.4246 12.8912 34.6014 11.1352 33.3256 9.73099C32.0499 8.32675 30.3807 7.33933 28.5357 6.89738C28.5142 6.89128 28.4925 6.88635 28.4705 6.88261C27.7786 6.72067 27.0706 6.63805 26.3601 6.63636H26.1569C26.0642 6.63243 25.9716 6.64731 25.8848 6.6801C25.7979 6.71289 25.7186 6.76291 25.6516 6.82715C25.5845 6.89139 25.5312 6.96852 25.4948 7.05391C25.4583 7.1393 25.4396 7.23118 25.4396 7.32401C25.4396 7.41685 25.4583 7.50872 25.4948 7.59411C25.5312 7.6795 25.5845 7.75663 25.6516 7.82087C25.7186 7.88511 25.7979 7.93513 25.8848 7.96792C25.9716 8.00071 26.0642 8.01559 26.1569 8.01166H26.3601C26.6063 8.01166 26.846 8.02274 27.0791 8.04491L25.838 9.66031C25.691 9.85062 25.5021 10.0046 25.2861 10.1103C25.07 10.2159 24.8325 10.2705 24.592 10.2698H22.4115C22.171 10.2705 21.9335 10.2159 21.7174 10.1103C21.5014 10.0046 21.3125 9.85062 21.1655 9.66031L19.9145 8.04983C20.1509 8.02767 20.3906 8.01659 20.6336 8.01659H22.6233ZM20.0795 10.5037C20.3544 10.8604 20.7077 11.149 21.1121 11.3472C21.5165 11.5453 21.9611 11.6477 22.4115 11.6463H24.5859C25.0362 11.6477 25.4808 11.5453 25.8852 11.3472C26.2896 11.149 26.643 10.8604 26.9179 10.5037L28.601 8.33179C30.0934 8.76574 31.4286 9.62189 32.4457 10.7971C33.4628 11.9724 34.1184 13.4166 34.3337 14.9559C34.4664 15.9066 34.5376 16.8649 34.5467 17.8247C34.5467 17.8518 34.5467 17.8777 34.5467 17.8949V17.9208C34.4219 19.4846 33.7139 20.9445 32.563 22.0107C31.4122 23.0769 29.9026 23.6716 28.3338 23.6769H18.6722C17.1008 23.6708 15.5893 23.0737 14.438 22.0043C13.2867 20.9348 12.5799 19.4714 12.4581 17.9048C12.4581 17.8777 12.4581 17.8518 12.4581 17.8247C12.4647 16.865 12.5334 15.9068 12.6637 14.9559C12.8789 13.4166 13.5346 11.9724 14.5517 10.7971C15.5688 9.62189 16.9039 8.76574 18.3964 8.33179L20.0795 10.5037Z" fill="white"/>
<path d="M11.0477 30.1506C11.2302 30.1506 11.4053 30.0781 11.5344 29.949C11.6634 29.8199 11.736 29.6449 11.736 29.4623C11.7363 29.1342 11.8668 28.8197 12.0987 28.5877C12.3307 28.3557 12.6453 28.2252 12.9734 28.2249H34.0277C34.3547 28.2269 34.6677 28.3581 34.8984 28.5899C35.129 28.8217 35.2587 29.1353 35.259 29.4623C35.2551 29.5551 35.2699 29.6477 35.3027 29.7345C35.3355 29.8214 35.3855 29.9007 35.4498 29.9677C35.514 30.0347 35.5911 30.0881 35.6765 30.1245C35.7619 30.1609 35.8538 30.1797 35.9466 30.1797C36.0395 30.1797 36.1313 30.1609 36.2167 30.1245C36.3021 30.0881 36.3793 30.0347 36.4435 29.9677C36.5077 29.9007 36.5578 29.8214 36.5905 29.7345C36.6233 29.6477 36.6382 29.5551 36.6343 29.4623C36.6336 28.7696 36.3582 28.1054 35.8683 27.6156C35.3785 27.1257 34.7143 26.8503 34.0216 26.8496H12.9672C12.2745 26.8503 11.6103 27.1257 11.1205 27.6156C10.6306 28.1054 10.3551 28.7696 10.3545 29.4623C10.3543 29.5532 10.3722 29.6431 10.407 29.727C10.4419 29.8109 10.493 29.8871 10.5575 29.9511C10.6219 30.0151 10.6984 30.0657 10.7826 30.1C10.8667 30.1342 10.9568 30.1514 11.0477 30.1506Z" fill="white"/>
<path d="M16.2057 13.7194C16.3616 13.8139 16.5485 13.8427 16.7255 13.7995C16.9025 13.7564 17.0552 13.6448 17.1501 13.4892C17.2203 13.3747 17.2941 13.2577 17.3705 13.1395C17.4699 12.9867 17.5046 12.8006 17.4668 12.6223C17.4291 12.4439 17.322 12.2878 17.1692 12.1884C17.0164 12.0889 16.8303 12.0543 16.6519 12.092C16.4735 12.1298 16.3175 12.2369 16.218 12.3897C16.1331 12.519 16.053 12.6483 15.9718 12.7738C15.925 12.8513 15.8939 12.9372 15.8803 13.0266C15.8668 13.1161 15.871 13.2073 15.8927 13.2951C15.9144 13.383 15.9533 13.4657 16.007 13.5385C16.0607 13.6113 16.1282 13.6728 16.2057 13.7194Z" fill="white"/>
<path d="M15.9056 20.3819C15.9766 20.4414 16.0589 20.486 16.1476 20.513C16.2363 20.5399 16.3295 20.5487 16.4217 20.5387C16.5138 20.5288 16.603 20.5003 16.6839 20.455C16.7648 20.4097 16.8357 20.3486 16.8924 20.2752C16.949 20.2019 16.9903 20.1179 17.0137 20.0282C17.0371 19.9385 17.0421 19.845 17.0285 19.7533C17.0149 19.6616 16.9829 19.5736 16.9344 19.4946C16.886 19.4156 16.8221 19.3472 16.7465 19.2935C16.6936 19.2504 15.4574 18.2223 16.094 15.846C16.1217 15.7574 16.1312 15.6642 16.1219 15.5718C16.1127 15.4795 16.0849 15.39 16.0402 15.3087C15.9954 15.2274 15.9347 15.156 15.8617 15.0987C15.7887 15.0415 15.7048 14.9996 15.6152 14.9756C15.5255 14.9516 15.432 14.9459 15.3401 14.959C15.2482 14.9721 15.16 15.0036 15.0806 15.0517C15.0012 15.0997 14.9324 15.1634 14.8782 15.2387C14.8241 15.3141 14.7857 15.3996 14.7654 15.4902C13.8814 18.7973 15.8218 20.3191 15.9056 20.3819Z" fill="white"/>
<path d="M0.685932 56.0639C0.776259 56.0639 0.865699 56.0461 0.949135 56.0115C1.03257 55.9769 1.10836 55.9261 1.17218 55.8622C1.23599 55.7983 1.28657 55.7224 1.32103 55.6389C1.35548 55.5554 1.37313 55.4659 1.37297 55.3756V49.4656C1.36175 46.4128 2.01375 43.3939 3.28387 40.6179C5.74637 35.3235 9.33915 33.4261 11.2611 32.7649C11.6586 32.6232 12.0677 32.5165 12.4838 32.446H16.9594L18.3199 34.6623C18.6209 35.1498 19.0411 35.5525 19.5408 35.8326C20.0406 36.1126 20.6035 36.2607 21.1764 36.2629C21.2691 36.2668 21.3617 36.252 21.4486 36.2192C21.5354 36.1864 21.6148 36.1364 21.6818 36.0721C21.7488 36.0079 21.8021 35.9308 21.8385 35.8454C21.875 35.76 21.8938 35.6681 21.8938 35.5753C21.8938 35.4824 21.875 35.3906 21.8385 35.3052C21.8021 35.2198 21.7488 35.1426 21.6818 35.0784C21.6148 35.0142 21.5354 34.9641 21.4486 34.9314C21.3617 34.8986 21.2691 34.8837 21.1764 34.8876C20.8382 34.8861 20.5061 34.7985 20.2112 34.6331C19.9163 34.4676 19.6683 34.2298 19.4908 33.942L18.5735 32.451H28.4235L27.5062 33.942C27.3283 34.2291 27.0802 34.4662 26.7853 34.631C26.4904 34.7958 26.1585 34.8828 25.8207 34.8839C25.7279 34.88 25.6353 34.8949 25.5485 34.9277C25.4616 34.9605 25.3823 35.0105 25.3153 35.0747C25.2483 35.139 25.1949 35.2161 25.1585 35.3015C25.1221 35.3869 25.1033 35.4787 25.1033 35.5716C25.1033 35.6644 25.1221 35.7563 25.1585 35.8417C25.1949 35.9271 25.2483 36.0042 25.3153 36.0684C25.3823 36.1327 25.4616 36.1827 25.5485 36.2155C25.6353 36.2483 25.7279 36.2632 25.8207 36.2592C26.3935 36.257 26.9564 36.1089 27.4562 35.8289C27.956 35.5488 28.3762 35.1461 28.6772 34.6586L30.0377 32.4424H34.5145C35.0476 32.5175 40.3753 33.4446 43.7132 40.6142C44.9833 43.3903 45.6353 46.4091 45.6241 49.4619V55.3719C45.6202 55.4647 45.635 55.5573 45.6678 55.6441C45.7006 55.731 45.7506 55.8103 45.8149 55.8773C45.8791 55.9443 45.9562 55.9976 46.0416 56.0341C46.127 56.0705 46.2189 56.0893 46.3117 56.0893C46.4046 56.0893 46.4964 56.0705 46.5818 56.0341C46.6672 55.9976 46.7444 55.9443 46.8086 55.8773C46.8728 55.8103 46.9229 55.731 46.9556 55.6441C46.9884 55.5573 47.0033 55.4647 46.9994 55.3719V49.4619C47.0103 46.2084 46.3146 42.9913 44.9604 40.033C41.1768 31.9068 34.9024 31.1015 34.6376 31.0707C34.6114 31.0689 34.5851 31.0689 34.5588 31.0707H12.4382C12.412 31.0689 12.3856 31.0689 12.3594 31.0707C11.8331 31.1519 11.3163 31.2855 10.8167 31.4697C8.68905 32.201 4.71951 34.2868 2.03908 40.0416C0.684897 42.9999 -0.0107792 46.217 0.00012626 49.4705V55.3805C0.00142218 55.5618 0.0741699 55.7352 0.202573 55.8632C0.330977 55.9911 0.504669 56.0632 0.685932 56.0639Z" fill="white"/>
<path d="M36.9977 55.7788C37.1799 55.7788 37.3547 55.7064 37.4835 55.5775C37.6124 55.4487 37.6848 55.274 37.6848 55.0917V48.2238C37.6828 46.5103 37.0013 44.8674 35.7898 43.6556C34.5782 42.4438 32.9355 41.762 31.2219 41.7598H15.9655C14.2518 41.7617 12.6087 42.4434 11.3969 43.6552C10.1851 44.867 9.50342 46.5101 9.50146 48.2238V55.0942C9.50146 55.2767 9.57398 55.4518 9.70305 55.5809C9.83213 55.71 10.0072 55.7825 10.1897 55.7825C10.3723 55.7825 10.5473 55.71 10.6764 55.5809C10.8055 55.4518 10.878 55.2767 10.878 55.0942V48.2238C10.8793 46.8748 11.4157 45.5814 12.3695 44.6274C13.3232 43.6734 14.6165 43.1367 15.9655 43.1351H31.2219C32.5709 43.1367 33.8642 43.6734 34.818 44.6274C35.7718 45.5814 36.3082 46.8748 36.3095 48.2238V55.0942C36.3101 55.2762 36.383 55.4505 36.512 55.5789C36.641 55.7072 36.8157 55.7791 36.9977 55.7788Z" fill="white"/>
<path d="M17.8478 52.1645C17.129 52.1635 16.4398 51.878 15.9309 51.3705C15.4219 50.8629 15.1346 50.1745 15.1317 49.4557C15.1241 49.2784 15.0484 49.1108 14.9203 48.988C14.7921 48.8651 14.6215 48.7966 14.444 48.7966C14.2665 48.7966 14.0959 48.8651 13.9677 48.988C13.8396 49.1108 13.7639 49.2784 13.7563 49.4557C13.7579 50.3083 14.0262 51.1391 14.5238 51.8315C15.0213 52.5239 15.723 53.0432 16.5306 53.3166C17.3382 53.5901 18.2111 53.6039 19.0269 53.3562C19.8428 53.1085 20.5606 52.6117 21.0798 51.9354C21.5991 51.2591 21.8936 50.4373 21.9222 49.5851C21.9507 48.733 21.7119 47.8933 21.2391 47.1838C20.7664 46.4742 20.0834 45.9304 19.286 45.6287C18.4886 45.3269 17.6167 45.2822 16.7926 45.501C16.6198 45.5511 16.4734 45.6669 16.3849 45.8236C16.2964 45.9803 16.2728 46.1655 16.3192 46.3393C16.3656 46.5132 16.4782 46.6621 16.633 46.7539C16.7878 46.8457 16.9724 46.8733 17.1472 46.8307C17.5222 46.7256 17.9155 46.7024 18.3003 46.7626C18.6851 46.8228 19.0525 46.965 19.3775 47.1796C19.7025 47.3942 19.9776 47.6761 20.1842 48.0063C20.3907 48.3365 20.5239 48.7073 20.5746 49.0934C20.6253 49.4796 20.5924 49.8721 20.4782 50.2445C20.3639 50.6168 20.1709 50.9603 19.9123 51.2515C19.6537 51.5427 19.3356 51.775 18.9793 51.9325C18.6231 52.09 18.2372 52.1691 17.8478 52.1645Z" fill="white"/>
<path d="M24.8096 49.1004V49.8022C24.8096 49.9847 24.8821 50.1598 25.0112 50.2889C25.1402 50.4179 25.3153 50.4905 25.4978 50.4905C25.6804 50.4905 25.8554 50.4179 25.9845 50.2889C26.1136 50.1598 26.1861 49.9847 26.1861 49.8022V49.1004C26.1861 48.9178 26.1136 48.7428 25.9845 48.6137C25.8554 48.4846 25.6804 48.4121 25.4978 48.4121C25.3153 48.4121 25.1402 48.4846 25.0112 48.6137C24.8821 48.7428 24.8096 48.9178 24.8096 49.1004Z" fill="white"/>
<path d="M28.382 49.1015V49.8034C28.378 49.8961 28.3929 49.9887 28.4257 50.0756C28.4585 50.1624 28.5085 50.2417 28.5728 50.3087C28.637 50.3758 28.7141 50.4291 28.7995 50.4655C28.8849 50.502 28.9768 50.5207 29.0696 50.5207C29.1625 50.5207 29.2543 50.502 29.3397 50.4655C29.4251 50.4291 29.5022 50.3758 29.5665 50.3087C29.6307 50.2417 29.6807 50.1624 29.7135 50.0756C29.7463 49.9887 29.7612 49.8961 29.7573 49.8034V49.1015C29.7498 48.9242 29.674 48.7566 29.5459 48.6338C29.4178 48.511 29.2471 48.4424 29.0696 48.4424C28.8921 48.4424 28.7215 48.511 28.5933 48.6338C28.4652 48.7566 28.3895 48.9242 28.382 49.1015Z" fill="white"/>
<path d="M31.9523 49.1015V49.8034C31.9484 49.8961 31.9632 49.9887 31.996 50.0756C32.0288 50.1624 32.0788 50.2417 32.1431 50.3087C32.2073 50.3758 32.2844 50.4291 32.3698 50.4655C32.4552 50.502 32.5471 50.5207 32.6399 50.5207C32.7328 50.5207 32.8246 50.502 32.91 50.4655C32.9954 50.4291 33.0725 50.3758 33.1368 50.3087C33.201 50.2417 33.2511 50.1624 33.2838 50.0756C33.3166 49.9887 33.3315 49.8961 33.3276 49.8034V49.1015C33.3201 48.9242 33.2443 48.7566 33.1162 48.6338C32.9881 48.511 32.8174 48.4424 32.6399 48.4424C32.4624 48.4424 32.2918 48.511 32.1636 48.6338C32.0355 48.7566 31.9598 48.9242 31.9523 49.1015Z" fill="white"/>
</svg>
