<svg width="36" height="36" viewBox="0 0 36 36" fill="none" xmlns="http://www.w3.org/2000/svg">
<path d="M35.3333 17.6667C35.3333 27.4236 27.4236 35.3333 17.6667 35.3333C7.90964 35.3333 0 27.4236 0 17.6667C0 7.90964 7.90964 0 17.6667 0C27.4236 0 35.3333 7.90964 35.3333 17.6667ZM3.22309 17.6667C3.22309 25.6436 9.68969 32.1103 17.6667 32.1103C25.6436 32.1103 32.1103 25.6436 32.1103 17.6667C32.1103 9.68969 25.6436 3.22309 17.6667 3.22309C9.68969 3.22309 3.22309 9.68969 3.22309 17.6667Z" fill="white"/>
<path d="M17.6666 6.42383C16.7796 6.42383 16.0605 7.14288 16.0605 8.02989V18.4158C16.0605 18.4158 16.0605 18.8345 16.264 19.1494C16.4002 19.4165 16.6125 19.6486 16.8915 19.8097L24.3112 24.0935C25.0794 24.537 26.0616 24.2737 26.5051 23.5056C26.9485 22.7374 26.6854 21.7551 25.9173 21.3117L19.2727 17.4754V8.02989C19.2727 7.14289 18.5536 6.42383 17.6666 6.42383Z" fill="white"/>
</svg>
