<svg width="78" height="78" viewBox="0 0 78 78" fill="none" xmlns="http://www.w3.org/2000/svg">
<path d="M72.5581 39C72.5581 57.5335 57.5335 72.5581 39 72.5581V78C60.5392 78 78 60.5392 78 39H72.5581ZM39 72.5581C20.4664 72.5581 5.44186 57.5335 5.44186 39H0C0 60.5392 17.4609 78 39 78V72.5581ZM5.44186 39C5.44186 20.4664 20.4664 5.44186 39 5.44186V0C17.4609 0 0 17.4609 0 39H5.44186ZM51.6977 47.1628C40.1769 47.1628 30.8372 37.8231 30.8372 26.3023H25.3953C25.3953 40.8288 37.1712 52.6047 51.6977 52.6047V47.1628ZM69.5662 37.0736C65.9089 43.126 59.2735 47.1628 51.6977 47.1628V52.6047C61.2568 52.6047 69.6221 47.5035 74.2241 39.8878L69.5662 37.0736ZM30.8372 26.3023C30.8372 18.7266 34.874 12.0911 40.9264 8.43369L38.1123 3.77611C30.4965 8.37793 25.3953 16.7431 25.3953 26.3023H30.8372ZM39 5.44186C38.6789 5.44186 38.3024 5.29703 38.0292 5.01261C37.7977 4.77168 37.744 4.54374 37.7313 4.45155C37.7161 4.33851 37.7237 4.0109 38.1123 3.77611L40.9264 8.43369C42.752 7.33073 43.339 5.31118 43.1242 3.72321C42.9015 2.07248 41.5998 0 39 0V5.44186ZM74.2241 39.8878C73.989 40.2763 73.6614 40.2839 73.5486 40.2687C73.4564 40.256 73.2282 40.2023 72.9873 39.9708C72.7029 39.6976 72.5581 39.3211 72.5581 39H78C78 36.4002 75.9274 35.0986 74.2767 34.8758C72.6887 34.661 70.6691 35.248 69.5662 37.0736L74.2241 39.8878Z" fill="black"/>
</svg>
