<svg width="161" height="106" viewBox="0 0 161 106" fill="none" xmlns="http://www.w3.org/2000/svg">
<path d="M46.2764 47.6377C43.4579 47.6377 41.1646 49.931 41.1646 52.7495C41.1646 55.568 43.4579 57.8613 46.2764 57.8613C49.0953 57.8613 51.3886 55.568 51.3886 52.7495C51.3886 49.931 49.0953 47.6377 46.2764 47.6377ZM46.2764 54.6516C45.2276 54.6516 44.3742 53.7983 44.3742 52.7495C44.3742 51.7007 45.2276 50.8474 46.2764 50.8474C47.3255 50.8474 48.1789 51.7007 48.1789 52.7495C48.1789 53.7983 47.3255 54.6516 46.2764 54.6516Z" fill="white"/>
<path d="M159.398 38.0588C160.285 38.0588 161.003 37.3402 161.003 36.4539V7.99772C161.003 7.11145 160.285 6.39288 159.398 6.39288H146.071C145.184 6.39288 144.466 7.11145 144.466 7.99772V36.4539C144.466 37.3402 145.184 38.0588 146.071 38.0588H151.13V41.6693H136.604C134.194 39.8297 131.227 38.8231 128.184 38.8231C121.058 38.8231 115.171 44.2214 114.392 51.1426H113.02V47.2148C113.02 46.3285 112.301 45.61 111.415 45.61H99.7825L97.3059 41.1465C97.023 40.6366 96.4858 40.3204 95.9024 40.3204H80.0494V37.7029H86.5474C87.4337 37.7029 88.1523 36.9843 88.1523 36.0981V1.60484C88.1523 0.718567 87.4337 0 86.5474 0H70.3923C69.506 0 68.7875 0.718567 68.7875 1.60484V36.0977C68.7875 36.9839 69.506 37.7025 70.3923 37.7025H76.8393V40.32H61.4056C60.5193 40.32 59.8008 41.0386 59.8008 41.9248V51.1422H57.9873C57.1969 45.1052 52.0233 40.4279 45.7745 40.4279C41.6368 40.4279 37.8694 42.4841 35.6134 45.7765C33.3574 42.4841 29.5904 40.4279 25.4524 40.4279H17.9152V38.0588H20.4525C21.3388 38.0588 22.0573 37.3402 22.0573 36.4539V7.99772C22.0573 7.11145 21.3388 6.39288 20.4525 6.39288H7.12469C6.23841 6.39288 5.51985 7.11145 5.51985 7.99772V36.4539C5.51985 37.3402 6.23841 38.0588 7.12469 38.0588H9.66234V40.4279H1.60484C0.718567 40.4279 0 41.1465 0 42.0328V63.465C0 64.3513 0.718567 65.0698 1.60484 65.0698H9.66234V67.439H7.12469C6.23841 67.439 5.51985 68.1576 5.51985 69.0438V97.5004C5.51985 98.3867 6.23841 99.1053 7.12469 99.1053H20.4525C21.3388 99.1053 22.0573 98.3867 22.0573 97.5004V69.0438C22.0573 68.1576 21.3388 67.439 20.4525 67.439H17.9148V65.0698H25.4532C29.5908 65.0698 33.3582 63.0136 35.6142 59.7213C37.8706 63.0132 41.6376 65.0698 45.7753 65.0698C52.0253 65.0698 57.2001 60.3905 57.9885 54.3519H59.8012V63.4855C59.8012 64.3717 60.5197 65.0903 61.406 65.0903H76.8397V67.7078H70.3927C69.5064 67.7078 68.7879 68.4264 68.7879 69.3126V103.805C68.7879 104.692 69.5064 105.41 70.3927 105.41H86.5478C87.4341 105.41 88.1527 104.692 88.1527 103.805V69.3126C88.1527 68.4264 87.4341 67.7078 86.5478 67.7078H80.0498V65.0903H95.9028C96.4862 65.0903 97.023 64.7737 97.3063 64.2642L99.7829 59.8008H111.415C112.301 59.8008 113.02 59.0822 113.02 58.1959V54.3519H114.403C115.22 61.2331 121.087 66.5876 128.185 66.5876C131.226 66.5876 134.192 65.5818 136.601 63.7442H151.131V67.439H146.071C145.185 67.439 144.466 68.1576 144.466 69.0438V97.5004C144.466 98.3867 145.185 99.1053 146.071 99.1053H159.399C160.285 99.1053 161.004 98.3867 161.004 97.5004V69.0438C161.004 68.1576 160.285 67.439 159.399 67.439H154.34V63.7442H159.329C160.216 63.7442 160.934 63.0257 160.934 62.1394V43.2741C160.934 42.3878 160.216 41.6693 159.329 41.6693H154.34V38.0588H159.398ZM80.0498 34.4928V29.1884H84.943V34.4928H80.0498ZM76.8401 17.2464H71.9979V11.7238H76.8401V17.2464ZM80.0498 11.7238H84.943V17.2464H80.0498V11.7238ZM76.8401 20.4561V25.9787H71.9979V20.4561H76.8401ZM80.0498 20.4561H84.943V25.9787H80.0498V20.4561ZM84.943 8.51408H80.0498V3.20968H84.943V8.51408ZM76.8401 3.20968V8.51408H71.9979V3.20968H76.8401ZM71.9975 34.4928V29.1884H76.8397V34.4928H71.9975ZM9.90547 61.8606V43.638H18.7473V61.8606H9.90547ZM21.957 43.6376H24.6215V61.8602H21.957V43.6376ZM18.8476 23.8307V27.8251H8.72953V23.8307H18.8476ZM8.72953 20.621V16.6261H18.8476V20.621H8.72953ZM18.8476 9.60256V13.4169H8.72953V9.60256H18.8476ZM8.72953 31.0348H18.8476V34.8491H8.72953V31.0348ZM12.872 38.0588H14.7051V40.4279H12.872V38.0588ZM3.20968 43.6376H6.69579V61.8602H3.20968V43.6376ZM8.72953 81.6675V77.673H18.8476V81.6675H8.72953ZM18.8476 84.8772V88.8716H8.72953V84.8772H18.8476ZM8.72953 95.896V92.0817H18.8476V95.896H8.72953ZM18.8476 74.4634H8.72953V70.6491H18.8476V74.4634ZM14.7051 67.4394H12.872V65.0702H14.7051V67.4394ZM27.8311 61.54V43.9582C30.6203 44.7108 32.9277 46.7598 33.9737 49.5422V55.9564C32.9277 58.7383 30.6203 60.7873 27.8311 61.54ZM45.7753 61.8606C41.898 61.8606 38.4644 59.4168 37.1833 55.7686V49.7304C38.4644 46.0818 41.898 43.638 45.7753 43.638C50.7992 43.638 54.8863 47.7255 54.8863 52.7495C54.8863 57.773 50.7992 61.8606 45.7753 61.8606ZM76.8401 70.9175V76.2219H71.9979V70.9175H76.8401ZM80.0498 88.1643H84.943V93.6869H80.0498V88.1643ZM76.8401 93.6869H71.9979V88.1643H76.8401V93.6869ZM80.0498 84.9546V79.432H84.943V84.9546H80.0498ZM76.8401 84.9546H71.9979V79.432H76.8401V84.9546ZM71.9975 96.8966H76.8397V102.201H71.9975V96.8966ZM80.0498 102.201V96.8962H84.943V102.201H80.0498ZM84.943 70.9175V76.2219H80.0498V70.9175H84.943ZM63.0108 43.5301H67.4426V61.881H63.0108V43.5301ZM94.9576 61.8806H70.6523V43.5297H94.9576L97.0884 47.3697V58.0402L94.9576 61.8806ZM109.81 56.5911H100.298V48.8192H109.81V56.5911ZM147.675 81.6675V77.673H157.793V81.6675H147.675ZM157.793 84.8772V88.8716H147.675V84.8772H157.793ZM147.675 95.896V92.0817H157.793V95.896H147.675ZM157.793 74.4634H147.675V70.6491H157.793V74.4634ZM117.511 52.7054C117.511 49.1679 119.242 46.0288 121.9 44.0858V61.325C119.242 59.3819 117.511 56.2424 117.511 52.7054ZM128.184 63.3779C127.115 63.3779 126.084 63.2183 125.11 62.925V42.4857C126.084 42.1925 127.115 42.0328 128.184 42.0328C130.678 42.0328 133.105 42.9126 135.019 44.5102C135.118 44.5937 135.228 44.6579 135.341 44.7133V60.7011C135.225 60.7576 135.112 60.823 135.012 60.9069C133.1 62.5005 130.675 63.3779 128.184 63.3779ZM157.723 60.5346H138.551V44.879H157.723V60.5346ZM157.793 23.8307V27.8251H147.675V23.8307H157.793ZM147.675 20.621V16.6261H157.793V20.621H147.675ZM157.793 9.60256V13.4169H147.675V9.60256H157.793ZM147.675 31.0348H157.793V34.8491H147.675V31.0348Z" fill="white"/>
</svg>
