<svg width="82" height="82" viewBox="0 0 82 82" fill="none" xmlns="http://www.w3.org/2000/svg">
<path d="M59.8253 40.834C59.8253 51.3231 51.3221 59.8263 40.8331 59.8263C30.3439 59.8263 21.8408 51.3231 21.8408 40.834C21.8408 30.3449 30.3439 21.8418 40.8331 21.8418C51.3221 21.8418 59.8253 30.3449 59.8253 40.834Z" fill="white"/>
<path fill-rule="evenodd" clip-rule="evenodd" d="M40.8333 0C42.4066 0 43.6821 1.27548 43.6821 2.84884V10.4457C43.6821 12.0191 42.4066 13.2946 40.8333 13.2946C39.26 13.2946 37.9845 12.0191 37.9845 10.4457V2.84884C37.9845 1.27548 39.26 0 40.8333 0ZM9.18711 9.36731C10.2488 8.20613 12.0508 8.12545 13.212 9.18711L21.6521 16.904C22.8133 17.9657 22.894 19.7676 21.8323 20.9288C20.7707 22.09 18.9687 22.1707 17.8075 21.109L9.36731 13.3921C8.20613 12.3305 8.12545 10.5285 9.18711 9.36731ZM72.4797 9.36731C73.5414 10.5285 73.4605 12.3305 72.2993 13.3921L63.8591 21.109C62.6979 22.1707 60.896 22.09 59.8343 20.9288C58.7726 19.7676 58.8531 17.9657 60.0143 16.904L68.4549 9.18711C69.616 8.12545 71.4177 8.20613 72.4797 9.36731ZM0 40.8333C0 39.26 1.27548 37.9845 2.84884 37.9845H10.4457C12.0191 37.9845 13.2946 39.26 13.2946 40.8333C13.2946 42.4066 12.0191 43.6821 10.4457 43.6821H2.84884C1.27548 43.6821 0 42.4066 0 40.8333ZM68.3721 40.8333C68.3721 39.26 69.6476 37.9845 71.2209 37.9845H78.8178C80.3911 37.9845 81.6666 39.26 81.6666 40.8333C81.6666 42.4066 80.3911 43.6821 78.8178 43.6821H71.2209C69.6476 43.6821 68.3721 42.4066 68.3721 40.8333ZM59.9224 59.9213C61.035 58.8087 62.8389 58.8087 63.9514 59.9213L72.3916 68.3626C73.5041 69.4751 73.5038 71.279 72.3912 72.3916C71.2786 73.5041 69.4747 73.5038 68.3626 72.3912L59.9224 63.9499C58.8098 62.8373 58.8098 61.0338 59.9224 59.9213ZM21.7449 59.9216C22.8574 61.0342 22.8574 62.8381 21.7449 63.9507L13.3038 72.3916C12.1913 73.5041 10.3875 73.5041 9.27497 72.3916C8.16245 71.279 8.16245 69.4751 9.27497 68.3629L17.716 59.9216C18.8285 58.8091 20.6323 58.8091 21.7449 59.9216ZM40.8333 68.3721C42.4066 68.3721 43.6821 69.6476 43.6821 71.2209V78.8178C43.6821 80.3911 42.4066 81.6666 40.8333 81.6666C39.26 81.6666 37.9845 80.3911 37.9845 78.8178V71.2209C37.9845 69.6476 39.26 68.3721 40.8333 68.3721Z" fill="white"/>
</svg>
